# xmcd
#
# Track frame offsets:
#	150
#	23865
#	44880
#	65505
#	85958
#	105399
#	131129
#	149609
#	169870
#	194412
#	217747
#	242052
#	261112
#
# Disc length: 3970 seconds
#
# Revision: 0
# Processed by: cddbd v1.4PL0 Copyright (c) Steve Scherf et al.
# Submitted via: EZCDDA 4.3.3.2
#
DISCID=c30f800d
DTITLE=Eric Benet - A Day In The Live of Eric Benet
DYEAR=1900
DGENRE=
TTITLE0=That's Just My Way
TTITLE1=Georgy Porgy
TTITLE2=Spend My Life With You
TTITLE3=Something Real
TTITLE4=Loving Your Best Friend
TTITLE5=When You Think Of Me
TTITLE6=Lamentation
TTITLE7=Dust In The Wind
TTITLE8=Why You Follow Me
TTITLE9=Come As You Are
TTITLE10=Love The Hurt Away
TTITLE11=Ghetto Girl
TTITLE12=Love Of My Own
EXTD=
EXTT0=
EXTT1=
EXTT2=
EXTT3=
EXTT4=
EXTT5=
EXTT6=
EXTT7=
EXTT8=
EXTT9=
EXTT10=
EXTT11=
EXTT12=
PLAYORDER=
